<?xml version="1.0" encoding="UTF-8"?>
<svg id="Layer_1" xmlns="http://www.w3.org/2000/svg" version="1.1" viewBox="0 0 841.89 595.28">
  <!-- Generator: Adobe Illustrator 29.4.0, SVG Export Plug-In . SVG Version: 2.1.0 Build 152)  -->
  <defs>
    <style>
      .st0 {
        fill: none;
      }

      .st1 {
        fill: #fff;
      }
    </style>
  </defs>
  <g>
    <path class="st1" d="M296.89,258.07c-22.88,31.01-49.67,59.46-80.79,82.27-9.15,6.7-11.76,3.48-15.51,15.93-10.98,36.45-26.72,112.12-12.72,147.34,1.8,4.54,7.44,9.14-1.45,6.1-3.53-1.2-7.56-4.64-10.07-7.37-30.24-32.88-5.66-103.06,1.75-141.56-3.28,1.94-26.19.02-24.38-6.03.48-1.61,28.45-8.85,30.13-14.09,18.62-69.8,42.66-137.84,66.9-205.77,10.15-1.59,21.06,14.15,20.34,22.66-.29,3.39-7.58,12.86-9.25,16.53-9.52,20.91-17.26,44.1-24.75,65.78-.29.85-1.88,1.09-1.93,1.24-6.5,18.96-16.86,50.41-21.28,69.61-.08.33-.3,5.27-.04,5.3,1.43.17,19.51-16.22,22.1-18.58,40.85-37.26,99.03-113.44,95.62-171.27-1.97-33.47-34.31-27.09-55.87-16.43-52.49,25.94-104.28,97.54-112.65,154.33-.93,6.28.91,12.57.5,18.82-4.09-5.37-5.88-13.45-6.37-20.07-4.07-55.01,43.08-128.08,86.65-159.22,54.5-38.95,113.91-24.87,102.66,51.82-5.61,38.24-27.24,72.33-49.61,102.66Z"/>
    <g>
      <path class="st1" d="M558.29,78.84c-.42-.47-3.18,1.35-3.77,1.74-31.07,20.76-55.56,111.36-68.4,146.69-2.79,5.73-6.07,2.71-9.33,4.04-27.51,11.16-66.11,97.09-57.6,124.12,1.55,4.92,6.52,11.23,12.39,9.77,8.96-2.23,21.81-25.31,25.91-33.4,4.04-7.97,5.96-18.6,12.44-25.07-2.69,30.47-6.09,71.29,17.41,94.7.38-.15.8-.26,1.26-.31.15-.59.28-1.18.4-1.77.08-.4.14-.81.21-1.22-.35-.73-.5-1.55-.5-2.38-.01-.04-.04-.07-.05-.11-.25-.48-.39-.99-.42-1.53-.06-.32-.11-.64-.11-.98v-.07c-.05-.19-.1-.39-.14-.59-31.77-71.86,35.1-220.93,61.73-290.52.97-2.54,9.39-22.19,8.57-23.11ZM463.16,295.58c-1.54,3.39-26.4,53.73-29.85,50.66-.16-.14-.52-3.56-.53-4.26-.35-17.32,24.09-67.33,35.17-81.72,3.04-3.94,6.14-6.97,10.11-9.94-2.35,16.46-8.16,30.35-14.9,45.26Z"/>
      <path class="st1" d="M631.95,180.73c9.68,12.53-7.54,26.69-5.36,37.65,1.78,8.93,11.83,14.87,14.28,22.32,4.7,14.28-7.47,26.86-12.87,38.93-19.09,42.72-32.31,123.99,33.07,130.35,1.54.15,8.5-.66,8.83-.37,1.27,1.13-8.09,6.74-9.29,7.27-29.93,13.2-56.67-11.81-64.14-39.35-12.03-44.4,7.21-94.39,27.49-133.37-2.11-9.58-12.78-14.49-12.2-25.81-19.9,28.28-32.98,60.99-52.67,89.45-9.55,13.81-36.96,50.84-55.26,27.79-19.28-24.29,17.45-101.11,37.88-119.58,15.68-14.18,31.12-6.18,27.35,14.57-3.23,17.75-27.26,48.47-40.05,61.38-1.82,1.84-13.31,10.36-13.72,11.14-3.04,5.67-2.76,26.89,8.16,23.69,13.56-3.98,44.07-52.37,51.8-65.62,5.89-10.09,29.57-50.93,31.19-59.54.28-1.51-1.4-2.33-.82-4.81.25-1.08,9.83-13.96,11.11-15.09,4.33-3.83,10.93-6.57,15.23-1.01ZM533.63,268.66c4.25-5.08,20.92-27.32,21.09-32.74.3-9.71-14.42,6.83-15.61,8.45-2.67,3.63-18.08,33.55-17.42,35.89.59,2.11,11.08-10.56,11.95-11.61Z"/>
    </g>
    <g>
      <path class="st1" d="M300.56,398.36c-8.42,11.63-28.36,25.96-37.89,6.63-14.45-29.32,23.87-117.39,48.26-137.23,10.48-8.53,23.69-7.23,29.65,5.83,11.38,24.91-24.27,103.02-40.03,124.77ZM297.55,315.11c-8.19,16.26-26.68,62.12-22.35,79.03,3.11,12.15,9.87.17,13.6-4.92,12.65-17.27,44.18-79.38,40.31-99.51-.25-1.28-2.75-5.57-3.94-5.95-9.77-3.16-24.12,24.41-27.62,31.36Z"/>
      <path class="st1" d="M409.84,245.31c.36.18,3.11,3.38,3.36,3.91,4.07,8.58-7.89,45.35-10.01,56.79-3.01,16.21-9.28,57.96-.93,71.58,2.71,4.42,7.62,3.02,4.83,8.25-3.42,6.42-10.32,2.18-14.16-1.25-22.1-19.75-6.29-82.4-2.06-108.69-17.93,23.18-32.14,49.92-43.71,76.9-2.85,6.63-5.95,19.92-8.94,25.36-4.63,8.42-12.73-.58-10.28-11.45,6.18-27.44,50.23-105.01,73.81-119.77,3.11-1.95,4.07-3.59,8.1-1.64Z"/>
    </g>
  </g>
  <line class="st0" x1="506.49" y1="376.53" x2="514.06" y2="375.73"/>
</svg>